<svg
  xmlns="http://www.w3.org/2000/svg"
  width="120"
  height="60"
  viewBox="0 0 120 60"
  preserveAspectRatio="xMidYMid"
>
  <g transform="matrix(0.109375 0 0 0.109375 6.1295775 14.061972)">
    <path d="M0 0h256v256H0z" fill="#f7df1e" />
    <path
      d="m67.311746 213.93229 19.590908-11.85605c3.779454 6.70111 7.217575 12.3709 15.464436 12.3709 7.90511 0 12.88899-3.09232 12.88899-15.12026v-81.79809h24.05749V199.667c0 24.91733-14.60581 36.25894-35.91517 36.25894-19.245105 0-30.416457-9.96734-36.08706-21.99568"
      fill="#000"
    />
    <path
      d="m152.38095 211.35441 19.58847-11.34161c5.15657 8.42118 11.85849 14.60703 23.71495 14.60703 9.96815 0 16.32467-4.98387 16.32467-11.85767 0-8.24848-6.52962-11.17014-17.52787-15.98009l-6.01275-2.57951c-17.35721-7.38783-28.87111-16.66722-28.87111-36.25772 0-18.04353 13.7472-31.79154 35.22844-31.79154 15.29417 0 26.29201 5.32764 34.19591 19.24713l-18.73107 12.02834c-4.12444-7.38864-8.59103-10.30948-15.46443-10.30948-7.04569 0-11.51391 4.46781-11.51391 10.30948 0 7.21758 4.46822 10.13964 14.77771 14.60785l6.01396 2.57747c20.44953 8.76455 31.96343 17.69936 31.96343 37.8043 0 21.65353-17.01221 33.50958-39.86692 33.50958-22.33945 0-36.7746-10.65366-43.81907-24.57356"
      fill="#000"
    />
  </g>

  <!-- JavaScript text -->
  <path
    fill="#04233e"
    d="m40.994882 35.124048c2.060775 0 3.52501-1.156927 3.52501-3.597318v-8.85772h-1.91616v8.821566c0 1.42808-.668847 1.916159-1.699235 1.916159-.903849 0-1.410004-.542309-1.843852-1.319619l-1.55462.958079c.578464 1.13885 1.663082 2.078853 3.488857 2.078853zm10.412355-4.681938h-2.078852c-1.717313.01808-2.982701.705003-2.982701 2.2777 0 1.699235 1.229234 2.404238 2.729623 2.404238 1.120772 0 1.843852-.433848 2.386161-1.247311l-.05424 1.084618h1.825775v-4.48309c0-2.241545-1.373851-3.271933-3.199625-3.271933-1.608851 0-2.5127.560387-3.181548 1.355773l1.048465 1.066541c.41577-.470001.994233-.903848 1.988467-.903848.976157 0 1.518466.506155 1.518466 1.717312zm0 1.265389v.59654c0 .831541-.759233 1.355774-1.825774 1.355774-.940003 0-1.446159-.343463-1.446159-.994235 0-.668847.524232-.958079 1.31962-.958079zm6.83311 3.416549h.235l3.850396-7.755024h-1.861928l-1.536543 3.362318c-.271154.632695-.488079 1.645006-.488079 1.645006s-.235-1.012311-.524232-1.645006l-1.536543-3.362318h-2.024621zm9.779863-4.681938h-2.078852c-1.717313.01808-2.982702.705003-2.982702 2.2777 0 1.699235 1.229235 2.404238 2.729624 2.404238 1.120772 0 1.843852-.433848 2.386161-1.247311l-.05423 1.084618h1.825774v-4.48309c0-2.241545-1.37385-3.271933-3.199625-3.271933-1.60885 0-2.512699.560387-3.181547 1.355773l1.048465 1.066541c.41577-.470001.994233-.903848 1.988467-.903848.976157 0 1.518466.506155 1.518465 1.717312zm0 1.265389v.59654c0 .831541-.759233 1.355774-1.825774 1.355774-.940003 0-1.446159-.343463-1.446159-.994235 0-.668847.524232-.958079 1.31962-.958079zm7.71887 3.416549c2.313854 0 3.995012-1.247311 3.995012-3.398472 0-1.970391-1.120772-2.946548-3.217701-3.868473l-.795388-.36154c-1.247311-.542308-1.771544-.958079-1.771544-1.880005 0-.831541.614618-1.428081 1.590775-1.428081.958079 0 1.500389.379617 1.97039 1.19308l1.500389-.921926c-.741156-1.319619-1.843851-1.934236-3.470779-1.934236-2.042699 0-3.452703 1.301542-3.452703 3.127317 0 1.898083 1.084618 2.801932 2.874239 3.597318l.813464.36154c1.337697.59654 2.060775 1.066542 2.060775 2.133083 0 1.012311-.885771 1.681159-2.133082 1.681159-1.50039 0-2.241546-.759234-2.820009-1.717313l-1.572697.867695c.686925 1.391927 2.096929 2.548854 4.428859 2.548854zm9.653123 0c1.464235 0 2.368083-.524232 3.10924-1.37385l-1.247312-1.08462c-.41577.470002-.958079.849618-1.861928.849618-1.355774 0-2.169238-.994233-2.169238-2.350006 0-1.355773.813464-2.350007 2.169238-2.350007.77731 0 1.410004.36154 1.771543.885772l1.301543-1.048465c-.723079-.903849-1.645005-1.446158-3.073086-1.446158-2.313853 0-4.049243 1.699235-4.049243 3.958858 0 2.277699 1.73539 3.958858 4.049243 3.958858zm4.844642-.162693h1.825774v-3.687703c0-1.699236.741155-2.331931 1.825774-2.331931.41577 0 .705002.108463.994231.253078l.614623-1.645004c-.325388-.198847-.705001-.325386-1.247315-.325386-.83154 0-1.699236.379617-2.205391 1.572697l.01808-1.428082h-1.825775zm7.718853-9.32772c.650777 0 1.211155-.488079 1.211155-1.211158 0-.686925-.560378-1.193079-1.211155-1.193079-.650765 0-1.211154.506154-1.211154 1.193079 0 .723079.560389 1.211158 1.211154 1.211158zm-.921929 9.32772h1.843859v-7.592331h-1.843859zm4.211951 3.832319h1.84384v-5.133861c.43385.849618 1.3377 1.464235 2.60309 1.464235 1.97039 0 3.56116-1.681159 3.56116-3.976935 0-2.295776-1.57269-3.940781-3.52501-3.940781-1.30154 0-2.20539.632694-2.69347 1.572696l.0542-1.410004h-1.84384zm3.97693-5.278478c-1.3377 0-2.20539-.940002-2.20539-2.368083 0-1.37385.86769-2.313853 2.20539-2.313853 1.31961 0 2.15115.940003 2.15115 2.313853 0 1.428081-.83154 2.368083-2.15115 2.368083zm8.78542 1.626928c.97616 0 1.5727-.361539 1.95231-.723079l-.86769-1.229233c-.19885.162691-.47.361539-.90385.361539-.47 0-.75924-.253078-.75924-1.120773v-3.525011h2.02463v-1.536543h-2.02463v-3.958857h-1.82577v3.958857h-1.13885v1.536543h1.13885v3.488857c0 2.024621.97616 2.7477 2.40424 2.7477z"
  />
</svg>